<svg xmlns="http://www.w3.org/2000/svg" width="20" height="20" fill="none"><g clip-path="url(#a)"><path fill="#fff" fill-rule="evenodd" d="M18.512 19.013H1.48799c-.816 0-1.477-.579-1.477-1.293V2.28199c0-.713.661-1.292 1.477-1.292H18.512c.815 0 1.476.579 1.476 1.292V17.72c0 .714-.661 1.293-1.476 1.293ZM3.47299 16.044h2.942V7.90699h-2.942V16.044Zm1.491-12.05901c-1.007 0-1.664.607-1.664 1.406 0 .78.638 1.406 1.625 1.406h.019c1.026 0 1.664-.626 1.664-1.406-.018-.799-.638-1.406-1.644-1.406ZM17.023 11.379c0-2.50001-1.452-3.66301-3.387-3.66301-1.562 0-2.26.789-2.651 1.344v-1.153H8.04299c.039.764 0 8.13701 0 8.13701H10.985V11.5c0-.242.019-.486.097-.659.212-.486.697-.98901 1.509-.98901 1.065 0 1.49.74601 1.49 1.84001v4.352h2.942v-4.665Zm-6.058-2.29201c.006-.009.014-.018.02-.027v.027h-.02Z" clip-rule="evenodd"/></g><defs><clipPath id="a"><path fill="#fff" d="M0 0h20v20H0z"/></clipPath></defs></svg>