<svg xmlns="http://www.w3.org/2000/svg" width="16" height="11" fill="none"><path stroke="#fff" stroke-width=".8" d="m8.13945 6.16166-.00002-.00003-.00431.00293c-.02778.01887-.06818.0324-.11162.0324h-.00342c-.06357 0-.10432-.02152-.11753-.03276l-.00069-.00059L1.09985.4H14.9358L8.4497 5.90252l-.00038.00033-.28495.24235-.00088.00059-.02404.01587Zm1.89515.32768L15.0112 10.6H.98387l4.98738-4.14123.99276.84174.00109.00092c.29296.2466.66941.37662 1.05725.37662.38755 0 .7642-.13113 1.05728-.37833l.0009-.00077.95407-.80961ZM4.82991 5.4915.4 9.17041V1.73773L4.82991 5.4915ZM15.6 1.76878v7.40681l-4.4235-3.65435L15.6 1.76878Z"/></svg>