<svg xmlns="http://www.w3.org/2000/svg" fill="none" viewBox="0 0 17 16"><path stroke="#fff" d="m13.1591 15.1874-.01.0099-.0095.0105c-.0507.0563-.1275.1161-.2438.1722l-.0002.0001c-.1161.0561-.2216.0892-.3173.1049-.0327.0022-.0679.0058-.0948.0085l-.0048.0004c-.0001.0001-.0001.0001-.0002.0001-.0335.0033-.0887.006-.1705.006-.1736 0-.4885-.0313-.9669-.1045-.4249-.065-.9711-.2299-1.64671-.51h-.00001c-.65753-.2726-1.41751-.6878-2.28233-1.2532h-.00001c-.84361-.5515-1.75424-1.3174-2.73161-2.3059h.00003l-.00458-.0046c-.77643-.7653-1.41291-1.49069-1.91329-2.17598-.50914-.69733-.9129-1.33427-1.21505-1.91159l-.00001-.00001c-.30713-.58679-.53171-1.108-.678918-1.56538-.153387-.4766-.25301-.87407-.304173-1.19639-.05448-.34322-.070763-.58204-.062384-.73286.008038-.14468.014026-.25647.016488-.3202.016109-.09441.049003-.19817.104049-.31219.056311-.11665.116087-.1934.172341-.24403l.009774-.0088.009297-.0093L3.06824.590841C3.14296.516121 3.20016.5 3.25706.5c.04334 0 .06702.010013.08983.027119.05851.043882.11066.098406.15649.166956L5.30626 4.11449l-.00016.00008.00669.01191c.0386.06861.05304.14163.03126.24508-.02639.12537-.07804.21745-.15241.29182l-.83051.83051c-.1027.1027-.15315.22474-.18011.30561-.02527.0758-.05108.1757-.05108.28523v.04719l.00883.04637c.05701.29928.17967.61656.3507.94692.15269.30468.3785.65876.6678 1.05799.30438.42005.72566.88981 1.25468 1.4076.51805.5293.99021.9529 1.41504 1.2624l.00007.0001c.40499.295.75961.5241 1.05856.6767.2723.1391.52686.2482.73939.2907h.00034l.21147.0424.04859.0097h.04955c.11184 0 .21734-.0341.26824-.0511l.0003-.0001c.0805-.0268.2026-.0772.3054-.18l.0031-.0031.9526-.9694c.1092-.0931.2254-.1353.3687-.1353.1405 0 .1928.0259.2003.0304l.1188.0713h.0188l3.1485 1.8598c.1317.0825.1738.1556.1893.2147.0081.0901-.0153.1595-.0965.2409l-.0006.0006-2.2528 2.2359Z"/></svg>