<svg xmlns="http://www.w3.org/2000/svg" width="14" height="19" fill="none"><g clip-path="url(#a)"><path fill="#fff" fill-rule="evenodd" d="M7.42398 0c-4.935 0-7.423 3.522-7.423 6.46 0 1.778.676 3.36 2.127 3.95.238.097.451.003.52-.259.048-.181.162-.639.212-.83.07-.259.043-.35-.149-.576-.419-.491-.686-1.127-.686-2.028 0-2.613 1.964-4.952 5.114-4.952 2.789 0 4.32102 1.697 4.32102 3.962 0 2.982-1.325 5.498-3.29302 5.498-1.086 0-1.899-.895-1.639-1.992.313-1.309.917-2.723.917-3.669 0-.846-.456-1.552-1.401-1.552-1.11 0-2.002 1.144-2.002 2.676 0 .977.331 1.637.331 1.637s-1.137 4.794-1.336 5.634c-.397 1.672-.059 3.722-.031 3.93.017.122.175.151.247.059.102-.134 1.425-1.759 1.875-3.384.127-.46.73-2.842.73-2.842.361.685 1.416 1.289 2.537 1.289 3.33902 0 5.60402-3.031 5.60402-7.087C13.999 2.857 11.39 0 7.42398 0Z" clip-rule="evenodd"/></g><defs><clipPath id="a"><path fill="#fff" d="M0 0h14v19H0z"/></clipPath></defs></svg>