<svg xmlns="http://www.w3.org/2000/svg" fill="none" viewBox="0 0 11 16"><path stroke="#fff" d="m1.50814 9.2492.00531.00778L5.5 15.1116l3.98655-5.85462.00531-.00778.00559-.00759c.73885-1.0017 1.07485-2.36261.98965-3.71911-.0852-1.35666-.58788-2.65261-1.45452-3.53391-1.95179-1.98477-5.11303-1.98481-7.06516 0L1.50814 9.2492Zm0 0-.00559-.00759m.00559.00759-.00559-.00759m0 0C.76372 8.23991.42775 6.879.51291 5.5225m.98964 3.71911L.51291 5.5225m0 0c.08517-1.35665.58786-2.65259 1.45449-3.53388L.51291 5.5225Zm2.72516.01586c0 1.28791 1.02872 2.34617 2.31549 2.34617 1.28676 0 2.31549-1.05826 2.31549-2.34617 0-1.28791-1.02873-2.34617-2.31549-2.34617-1.28677 0-2.31549 1.05826-2.31549 2.34617Z"/></svg>