<svg xmlns="http://www.w3.org/2000/svg" width="22" height="17" fill="none"><g clip-path="url(#a)"><path fill="#fff" fill-rule="evenodd" d="M21.008 1.89598c-.773.322-1.604.537-2.475.635.89-.5 1.573-1.292 1.895-2.234-.834.462-1.756.798-2.738.98-.785-.786-1.906-1.276-3.145-1.276-2.38 0-4.311 1.809-4.311 4.039 0 .317.038.626.112.921-3.582-.169-6.758-1.777-8.884-4.22-.371.597-.583 1.29-.583 2.031 0 1.4.761 2.638 1.917 3.362-.706-.022-1.37-.203-1.952-.506v.052c0 1.957 1.485 3.589 3.457 3.96-.361.092-.743.14-1.135.14-.278 0-.548-.024-.811-.07.548 1.60302 2.14 2.77202 4.026 2.80502-1.475 1.083-3.333 1.728-5.353 1.728-.348 0-.691-.019-1.028-.056 1.907 1.145 4.173 1.815 6.607 1.815 7.928 0 12.263-6.15602 12.263-11.49302 0-.176-.005-.349-.013-.523.842-.57 1.573-1.281 2.151-2.09Z" clip-rule="evenodd"/></g><defs><clipPath id="a"><path fill="#fff" d="M0 0h22v17H0z"/></clipPath></defs></svg>
