<svg xmlns="http://www.w3.org/2000/svg" fill="none" viewBox="0 0 115 145"><path fill="#F2F2F2" d="M.0547 48.3203c0-14.4531 5.2409-26.0742 15.7226-34.8633C26.2591 4.6029 40.1914.1758 57.5742.1758c16.9271 0 30.3386 3.9388 40.2344 11.8164 9.9614 7.8125 14.9414 18.164 14.9414 31.0547 0 3.6458-.618 7.3567-1.855 11.1328-1.237 3.7109-2.67 6.901-4.297 9.5703-1.563 2.6693-3.614 5.4688-6.153 8.3984-2.4736 2.9297-4.4593 5.1107-5.9567 6.543-1.4974 1.4323-3.3203 3.0925-5.4688 4.9805L55.9141 112.969v.781H114.41V145H2.496v-27.539l56.6407-50.0977c4.8177-4.2969 8.3008-8.2357 10.4492-11.8164 2.2136-3.6459 3.3203-7.3893 3.3203-11.2305 0-3.9062-1.4973-7.1289-4.4921-9.668-2.9948-2.6041-7.0964-3.9062-12.3047-3.9062-5.4037 0-9.8308 1.6276-13.2813 4.8828-3.3854 3.2552-5.0781 7.4544-5.0781 12.5977v.8789H.0547v-.7813Z"/></svg>